<svg width="64" height="64" viewBox="0 0 64 64" fill="none" xmlns="http://www.w3.org/2000/svg">
<circle cx="32" cy="32" r="32" fill="#FF5F01"/>
<path d="M40.9 35.7556C39.5333 35.7556 38.2111 35.5333 36.9778 35.1333C36.5889 35 36.1556 35.1 35.8556 35.4L34.1111 37.5889C30.9667 36.0889 28.0222 33.2556 26.4556 30L28.6222 28.1556C28.9222 27.8444 29.0111 27.4111 28.8889 27.0222C28.4778 25.7889 28.2667 24.4667 28.2667 23.1C28.2667 22.5 27.7667 22 27.1667 22H23.3222C22.7222 22 22 22.2667 22 23.1C22 33.4222 30.5889 42 40.9 42C41.6889 42 42 41.3 42 40.6889V36.8556C42 36.2556 41.5 35.7556 40.9 35.7556Z" fill="white"/>
</svg>
